<svg width="16" height="15" viewBox="0 0 16 15" fill="none" xmlns="http://www.w3.org/2000/svg">
<g id="delete">
<path id="Vector" d="M12.1 5.71541L11.9 11.3906C11.883 11.8766 11.6646 12.3373 11.2912 12.6749C10.9178 13.0124 10.4187 13.2003 9.90001 13.1985H6.10001C5.58162 13.2003 5.08289 13.0127 4.70954 12.6755C4.33618 12.3384 4.11756 11.8782 4.10001 11.3924L3.90001 5.71541C3.89564 5.59109 3.94412 5.47024 4.03479 5.37943C4.12547 5.28862 4.25091 5.2353 4.38351 5.2312C4.51612 5.22709 4.64504 5.27254 4.7419 5.35755C4.83876 5.44256 4.89564 5.56016 4.90001 5.68448L5.10001 11.361C5.10997 11.6034 5.21971 11.8327 5.40618 12.0007C5.59265 12.1688 5.84133 12.2626 6.10001 12.2624H9.90001C10.159 12.2626 10.408 12.1685 10.5945 12.0001C10.781 11.8316 10.8906 11.6018 10.9 11.3592L11.1 5.68448C11.1044 5.56016 11.1613 5.44256 11.2581 5.35755C11.355 5.27254 11.4839 5.22709 11.6165 5.2312C11.7491 5.2353 11.8746 5.28862 11.9652 5.37943C12.0559 5.47024 12.1044 5.59109 12.1 5.71541ZM12.7615 3.82682C12.7615 3.95114 12.7088 4.07037 12.6151 4.15828C12.5213 4.24619 12.3941 4.29557 12.2615 4.29557H3.73901C3.60641 4.29557 3.47923 4.24619 3.38546 4.15828C3.29169 4.07037 3.23901 3.95114 3.23901 3.82682C3.23901 3.7025 3.29169 3.58327 3.38546 3.49536C3.47923 3.40746 3.60641 3.35807 3.73901 3.35807H5.28901C5.44744 3.35847 5.60035 3.3036 5.718 3.20413C5.83565 3.10467 5.90962 2.96772 5.92551 2.81995C5.96241 2.4733 6.13564 2.15194 6.41146 1.9185C6.68728 1.68505 7.04592 1.55623 7.41751 1.55713H8.58251C8.95411 1.55623 9.31275 1.68505 9.58857 1.9185C9.86438 2.15194 10.0376 2.4733 10.0745 2.81995C10.0904 2.96772 10.1644 3.10467 10.282 3.20413C10.3997 3.3036 10.5526 3.35847 10.711 3.35807H12.261C12.3936 3.35807 12.5208 3.40746 12.6146 3.49536C12.7083 3.58327 12.761 3.7025 12.761 3.82682H12.7615ZM6.79351 3.35807H9.20751C9.14181 3.21733 9.09884 3.06819 9.08001 2.91557C9.06763 2.80003 9.00993 2.69291 8.91811 2.61497C8.82629 2.53703 8.70688 2.49381 8.58301 2.4937H7.41801C7.29415 2.49381 7.17474 2.53703 7.08291 2.61497C6.99109 2.69291 6.9334 2.80003 6.92101 2.91557C6.90203 3.06821 6.85939 3.21735 6.79351 3.35807ZM7.29701 10.4601V6.4687C7.29701 6.34438 7.24434 6.22515 7.15057 6.13724C7.0568 6.04933 6.92962 5.99995 6.79701 5.99995C6.66441 5.99995 6.53723 6.04933 6.44346 6.13724C6.34969 6.22515 6.29701 6.34438 6.29701 6.4687V10.462C6.29701 10.5863 6.34969 10.7055 6.44346 10.7934C6.53723 10.8813 6.66441 10.9307 6.79701 10.9307C6.92962 10.9307 7.0568 10.8813 7.15057 10.7934C7.24434 10.7055 7.29701 10.5863 7.29701 10.462V10.4601ZM9.70401 10.4601V6.4687C9.70401 6.34438 9.65133 6.22515 9.55757 6.13724C9.4638 6.04933 9.33662 5.99995 9.20401 5.99995C9.07141 5.99995 8.94423 6.04933 8.85046 6.13724C8.75669 6.22515 8.70401 6.34438 8.70401 6.4687V10.462C8.70401 10.5863 8.75669 10.7055 8.85046 10.7934C8.94423 10.8813 9.07141 10.9307 9.20401 10.9307C9.33662 10.9307 9.4638 10.8813 9.55757 10.7934C9.65133 10.7055 9.70401 10.5863 9.70401 10.462V10.4601Z" fill="black"/>
</g>
</svg>
