<svg width="20" height="20" viewBox="0 0 20 20" fill="none" xmlns="http://www.w3.org/2000/svg">
<g id="email">
<path id="Vector" d="M16.6937 16.6625H3.30624C2.60202 16.6617 1.92687 16.3816 1.42891 15.8836C0.930941 15.3856 0.650821 14.7105 0.649994 14.0063V5.99377C0.650821 5.28955 0.930941 4.6144 1.42891 4.11644C1.92687 3.61847 2.60202 3.33835 3.30624 3.33752H16.6937C17.398 3.33835 18.0731 3.61847 18.5711 4.11644C19.069 4.6144 19.3492 5.28955 19.35 5.99377V14.0063C19.3492 14.7105 19.069 15.3856 18.5711 15.8836C18.0731 16.3816 17.398 16.6617 16.6937 16.6625ZM3.30624 4.27502C2.8504 4.27502 2.41323 4.45611 2.0909 4.77843C1.76858 5.10076 1.58749 5.53793 1.58749 5.99377V14.0063C1.58749 14.4621 1.76858 14.8993 2.0909 15.2216C2.41323 15.5439 2.8504 15.725 3.30624 15.725H16.6937C17.1496 15.725 17.5868 15.5439 17.9091 15.2216C18.2314 14.8993 18.4125 14.4621 18.4125 14.0063V5.99377C18.4125 5.53793 18.2314 5.10076 17.9091 4.77843C17.5868 4.45611 17.1496 4.27502 16.6937 4.27502H3.30624Z" fill="#222222"/>
<path id="Vector_2" d="M10 11.8999C9.42175 11.9009 8.85895 11.7133 8.39689 11.3656L1.10001 5.84682C1.04846 5.81064 1.00472 5.76443 0.971419 5.71097C0.938118 5.65751 0.915932 5.59788 0.906187 5.53566C0.896442 5.47343 0.899339 5.40988 0.914703 5.34879C0.930067 5.28771 0.957584 5.23035 0.995611 5.18014C1.03364 5.12992 1.08139 5.08789 1.13603 5.05655C1.19066 5.0252 1.25105 5.00519 1.31359 4.99771C1.37613 4.99022 1.43953 4.99542 1.50002 5.01298C1.56051 5.03055 1.61683 5.06012 1.66564 5.09994L8.96251 10.6249C9.26216 10.8486 9.62608 10.9695 10 10.9695C10.3739 10.9695 10.7379 10.8486 11.0375 10.6249L18.3344 5.09994C18.3832 5.06012 18.4395 5.03055 18.5 5.01298C18.5605 4.99542 18.6239 4.99022 18.6864 4.99771C18.749 5.00519 18.8094 5.0252 18.864 5.05655C18.9186 5.08789 18.9664 5.12992 19.0044 5.18014C19.0424 5.23035 19.07 5.28771 19.0853 5.34879C19.1007 5.40988 19.1036 5.47343 19.0938 5.53566C19.0841 5.59788 19.0619 5.65751 19.0286 5.71097C18.9953 5.76443 18.9516 5.81064 18.9 5.84682L11.6031 11.3656C11.1411 11.7133 10.5783 11.9009 10 11.8999Z" fill="#222222"/>
<path id="Vector_3" d="M1.30312 15.3562C1.20805 15.3564 1.11518 15.3276 1.03684 15.2737C0.958503 15.2199 0.898395 15.1435 0.864494 15.0546C0.830593 14.9658 0.824501 14.8688 0.847027 14.7764C0.869553 14.6841 0.919632 14.6007 0.990618 14.5375L6.74062 9.40937C6.83344 9.32649 6.95539 9.28388 7.07963 9.29091C7.20388 9.29794 7.32024 9.35404 7.40312 9.44687C7.486 9.5397 7.52861 9.66164 7.52158 9.78589C7.51454 9.91013 7.45844 10.0265 7.36562 10.1094L1.61562 15.2375C1.53023 15.3152 1.41856 15.3576 1.30312 15.3562ZM18.6969 15.3562C18.5814 15.3576 18.4698 15.3152 18.3844 15.2375L12.6344 10.1094C12.5415 10.0265 12.4854 9.91013 12.4784 9.78589C12.4714 9.66164 12.514 9.5397 12.5969 9.44687C12.6797 9.35404 12.7961 9.29794 12.9204 9.29091C13.0446 9.28388 13.1665 9.32649 13.2594 9.40937L19.0062 14.5375C19.0772 14.6007 19.1273 14.6841 19.1498 14.7764C19.1724 14.8688 19.1663 14.9658 19.1324 15.0546C19.0985 15.1435 19.0384 15.2199 18.96 15.2737C18.8817 15.3276 18.7888 15.3564 18.6937 15.3562H18.6969Z" fill="#222222"/>
</g>
</svg>
