<svg width="15" height="15" viewBox="0 0 15 15" fill="none" xmlns="http://www.w3.org/2000/svg">
<g id="following">
<g id="Layer 2">
<path id="Vector" d="M8.90625 12.6563H3.75C3.62568 12.6563 3.50645 12.6069 3.41854 12.519C3.33064 12.4311 3.28125 12.3118 3.28125 12.1875V11.7188C3.28198 10.8849 3.52981 10.07 3.99342 9.37689C4.45703 8.68381 5.11564 8.14365 5.88606 7.82465C6.65647 7.50565 7.50415 7.42211 8.32202 7.58458C9.13988 7.74706 9.89126 8.14826 10.4812 8.73751C10.5709 8.81431 10.6863 8.85444 10.8042 8.84988C10.9222 8.84532 11.0341 8.79642 11.1176 8.71293C11.2011 8.62945 11.25 8.51754 11.2546 8.39957C11.2591 8.2816 11.219 8.16625 11.1422 8.07658C10.6398 7.57112 10.0381 7.17529 9.375 6.91408C9.94827 6.5149 10.3792 5.94318 10.605 5.28214C10.8309 4.6211 10.8399 3.90523 10.6307 3.23872C10.4215 2.57222 10.005 1.98987 9.44197 1.57644C8.87889 1.163 8.19856 0.940063 7.5 0.940063C6.80144 0.940063 6.12111 1.163 5.55803 1.57644C4.99495 1.98987 4.57851 2.57222 4.36933 3.23872C4.16014 3.90523 4.16912 4.6211 4.39496 5.28214C4.62081 5.94318 5.05173 6.5149 5.625 6.91408C4.65797 7.29156 3.82741 7.95215 3.24196 8.80941C2.65652 9.66667 2.34346 10.6807 2.34375 11.7188V12.1875C2.34375 12.5605 2.49191 12.9182 2.75563 13.1819C3.01935 13.4456 3.37704 13.5938 3.75 13.5938H8.90625C9.03057 13.5938 9.1498 13.5444 9.23771 13.4565C9.32561 13.3686 9.375 13.2493 9.375 13.125C9.375 13.0007 9.32561 12.8815 9.23771 12.7936C9.1498 12.7057 9.03057 12.6563 8.90625 12.6563ZM5.15625 4.21876C5.15625 3.75521 5.29371 3.30207 5.55124 2.91665C5.80878 2.53122 6.17482 2.23081 6.60309 2.05342C7.03135 1.87603 7.5026 1.82962 7.95724 1.92005C8.41189 2.01048 8.8295 2.2337 9.15728 2.56148C9.48506 2.88926 9.70828 3.30688 9.79872 3.76152C9.88915 4.21616 9.84274 4.68741 9.66534 5.11568C9.48795 5.54394 9.18754 5.90999 8.80212 6.16752C8.41669 6.42506 7.96355 6.56251 7.5 6.56251C6.8784 6.56251 6.28226 6.31558 5.84272 5.87605C5.40318 5.43651 5.15625 4.84037 5.15625 4.21876Z" fill="black"/>
<path id="Vector_2" d="M13.1953 9.93753C13.0656 9.77621 12.9044 9.6431 12.7214 9.54637C12.5384 9.44964 12.3376 9.39134 12.1313 9.37503C11.8217 9.35468 11.5136 9.43172 11.25 9.59534C10.987 9.43053 10.6784 9.35339 10.3688 9.37503C10.1628 9.39076 9.96218 9.44833 9.77922 9.54425C9.59626 9.64016 9.4348 9.77239 9.30469 9.93284C9.03746 10.2768 8.89831 10.7031 8.91114 11.1384C8.92397 11.5738 9.08798 11.9912 9.375 12.3188L10.6922 13.8047C10.7622 13.886 10.8488 13.9512 10.9463 13.9959C11.0438 14.0406 11.1498 14.0638 11.257 14.0638C11.3643 14.0638 11.4703 14.0406 11.5677 13.9959C11.6652 13.9512 11.7519 13.886 11.8219 13.8047L13.125 12.3188C13.4108 11.9915 13.5741 11.5751 13.5869 11.1408C13.5998 10.7064 13.4613 10.2811 13.1953 9.93753ZM12.4313 11.7188L11.25 13.0266L10.0688 11.7188C9.93117 11.5586 9.85168 11.3567 9.84317 11.1457C9.83466 10.9347 9.89763 10.727 10.0219 10.5563C10.0711 10.4931 10.1326 10.4406 10.2027 10.4019C10.2728 10.3632 10.35 10.3392 10.4297 10.3313H10.4672C10.6071 10.3344 10.7408 10.3896 10.8422 10.486C10.9533 10.5864 11.0978 10.6421 11.2477 10.6421C11.3975 10.6421 11.542 10.5864 11.6531 10.486C11.7079 10.4339 11.7727 10.3937 11.8437 10.3679C11.9147 10.3421 11.9902 10.3312 12.0656 10.336C12.1453 10.3439 12.2225 10.3679 12.2927 10.4066C12.3628 10.4452 12.4243 10.4978 12.4734 10.561C12.5972 10.7308 12.6603 10.9372 12.6526 11.1472C12.645 11.3571 12.567 11.5584 12.4313 11.7188Z" fill="black"/>
</g>
</g>
</svg>
