<svg width="20" height="20" viewBox="0 0 20 20" fill="none" xmlns="http://www.w3.org/2000/svg">
<g id="password">
<path id="Vector" d="M15 2.5H5C4.33696 2.5 3.70107 2.76339 3.23223 3.23223C2.76339 3.70107 2.5 4.33696 2.5 5V15C2.5 15.663 2.76339 16.2989 3.23223 16.7678C3.70107 17.2366 4.33696 17.5 5 17.5H15C15.663 17.5 16.2989 17.2366 16.7678 16.7678C17.2366 16.2989 17.5 15.663 17.5 15V5C17.5 4.33696 17.2366 3.70107 16.7678 3.23223C16.2989 2.76339 15.663 2.5 15 2.5ZM16.25 15C16.25 15.3315 16.1183 15.6495 15.8839 15.8839C15.6495 16.1183 15.3315 16.25 15 16.25H5C4.66848 16.25 4.35054 16.1183 4.11612 15.8839C3.8817 15.6495 3.75 15.3315 3.75 15V5C3.75 4.66848 3.8817 4.35054 4.11612 4.11612C4.35054 3.8817 4.66848 3.75 5 3.75H15C15.3315 3.75 15.6495 3.8817 15.8839 4.11612C16.1183 4.35054 16.25 4.66848 16.25 5V15ZM12.3869 7.76312C11.9043 7.76477 11.4353 7.92272 11.0501 8.21331C10.6649 8.5039 10.3841 8.91148 10.25 9.375H6C5.83424 9.375 5.67527 9.44085 5.55806 9.55806C5.44085 9.67527 5.375 9.83424 5.375 10V11.6119C5.375 11.7776 5.44085 11.9366 5.55806 12.0538C5.67527 12.171 5.83424 12.2369 6 12.2369C6.16576 12.2369 6.32473 12.171 6.44194 12.0538C6.55915 11.9366 6.625 11.7776 6.625 11.6119V10.625H7.25V11.6119C7.25 11.7776 7.31585 11.9366 7.43306 12.0538C7.55027 12.171 7.70924 12.2369 7.875 12.2369C8.04076 12.2369 8.19973 12.171 8.31694 12.0538C8.43415 11.9366 8.5 11.7776 8.5 11.6119V10.625H10.25C10.3669 11.0228 10.5923 11.3802 10.9008 11.6571C11.2094 11.9341 11.589 12.1196 11.9971 12.1929C12.4052 12.2663 12.8257 12.2245 13.2114 12.0723C13.597 11.9201 13.9327 11.6635 14.1808 11.3313C14.4289 10.9991 14.5795 10.6043 14.6159 10.1913C14.6522 9.77825 14.5728 9.36326 14.3866 8.99282C14.2003 8.62237 13.9146 8.31111 13.5614 8.09392C13.2082 7.87673 12.8015 7.76218 12.3869 7.76312ZM12.3869 10.9869C12.1917 10.9866 12.0011 10.9285 11.8389 10.8199C11.6768 10.7114 11.5505 10.5571 11.476 10.3768C11.4015 10.1964 11.3821 9.99806 11.4204 9.80671C11.4586 9.61535 11.5527 9.43963 11.6907 9.30173C11.8288 9.16384 12.0047 9.06997 12.1961 9.032C12.3875 8.99402 12.5858 9.01364 12.7661 9.08837C12.9463 9.1631 13.1004 9.28959 13.2088 9.45185C13.3172 9.61412 13.375 9.80487 13.375 10C13.3747 10.2619 13.2704 10.5129 13.0851 10.6979C12.8999 10.8829 12.6487 10.9869 12.3869 10.9869Z" fill="black" fill-opacity="0.7"/>
</g>
</svg>
