<svg width="55" height="55" viewBox="0 0 55 55" fill="none" xmlns="http://www.w3.org/2000/svg">
<g id="profile">
<rect width="55" height="55" fill="#9D8E05"/>
<path id="Vector" d="M27.5 4.58333C23.0553 4.59178 18.7089 5.89259 14.9903 8.32732C11.2717 10.762 8.34143 14.2256 6.55632 18.2961C4.77122 22.3667 4.20836 26.8685 4.93631 31.2532C5.66426 35.6379 7.65159 39.7163 10.6563 42.9917C12.8022 45.3178 15.4067 47.1743 18.3057 48.444C21.2046 49.7138 24.3352 50.3693 27.5 50.3693C30.6648 50.3693 33.7954 49.7138 36.6943 48.444C39.5933 47.1743 42.1978 45.3178 44.3438 42.9917C47.3484 39.7163 49.3357 35.6379 50.0637 31.2532C50.7916 26.8685 50.2288 22.3667 48.4437 18.2961C46.6586 14.2256 43.7283 10.762 40.0097 8.32732C36.2911 5.89259 31.9447 4.59178 27.5 4.58333ZM27.5 45.8333C22.7527 45.8261 18.1933 43.9777 14.7813 40.6771C15.8172 38.1552 17.5795 35.9982 19.8441 34.4802C22.1088 32.9621 24.7736 32.1516 27.5 32.1516C30.2264 32.1516 32.8912 32.9621 35.1559 34.4802C37.4206 35.9982 39.1828 38.1552 40.2188 40.6771C36.8067 43.9777 32.2473 45.8261 27.5 45.8333ZM22.9167 22.9167C22.9167 22.0102 23.1855 21.124 23.6891 20.3703C24.1927 19.6166 24.9085 19.0291 25.746 18.6822C26.5835 18.3353 27.5051 18.2446 28.3942 18.4214C29.2832 18.5982 30.0999 19.0348 30.7409 19.6758C31.3819 20.3168 31.8184 21.1334 31.9953 22.0225C32.1721 22.9116 32.0814 23.8331 31.7344 24.6706C31.3875 25.5081 30.8001 26.2239 30.0464 26.7276C29.2926 27.2312 28.4065 27.5 27.5 27.5C26.2844 27.5 25.1186 27.0171 24.2591 26.1576C23.3996 25.298 22.9167 24.1322 22.9167 22.9167ZM43.3354 36.6667C41.2879 33.1644 38.1365 30.4403 34.375 28.9208C35.5418 27.5978 36.3021 25.9661 36.5646 24.2216C36.8271 22.4772 36.5807 20.694 35.8548 19.0861C35.129 17.4783 33.9547 16.114 32.4727 15.157C30.9907 14.2 29.2641 13.691 27.5 13.691C25.7359 13.691 24.0093 14.2 22.5273 15.157C21.0453 16.114 19.871 17.4783 19.1452 19.0861C18.4193 20.694 18.1729 22.4772 18.4354 24.2216C18.6979 25.9661 19.4582 27.5978 20.625 28.9208C16.8635 30.4403 13.7121 33.1644 11.6646 36.6667C10.0328 33.8871 9.17061 30.7231 9.16667 27.5C9.16667 22.6377 11.0982 17.9745 14.5364 14.5364C17.9745 11.0982 22.6377 9.16667 27.5 9.16667C32.3623 9.16667 37.0255 11.0982 40.4636 14.5364C43.9018 17.9745 45.8333 22.6377 45.8333 27.5C45.8294 30.7231 44.9672 33.8871 43.3354 36.6667Z" fill="white"/>
</g>
</svg>
