<svg width="15" height="15" viewBox="0 0 15 15" fill="none" xmlns="http://www.w3.org/2000/svg">
<g id="upload">
<path id="Vector" d="M5.44375 4.81881L6.875 3.38131V9.37506C6.875 9.54082 6.94085 9.69979 7.05806 9.817C7.17527 9.93421 7.33424 10.0001 7.5 10.0001C7.66576 10.0001 7.82473 9.93421 7.94194 9.817C8.05915 9.69979 8.125 9.54082 8.125 9.37506V3.38131L9.55625 4.81881C9.61435 4.87739 9.68348 4.92388 9.75964 4.95561C9.8358 4.98734 9.91749 5.00368 10 5.00368C10.0825 5.00368 10.1642 4.98734 10.2404 4.95561C10.3165 4.92388 10.3856 4.87739 10.4437 4.81881C10.5023 4.76071 10.5488 4.69158 10.5806 4.61542C10.6123 4.53926 10.6286 4.45756 10.6286 4.37506C10.6286 4.29255 10.6123 4.21086 10.5806 4.1347C10.5488 4.05853 10.5023 3.98941 10.4437 3.93131L7.94375 1.43131C7.88431 1.37441 7.81422 1.3298 7.7375 1.30006C7.58534 1.23755 7.41466 1.23755 7.2625 1.30006C7.18578 1.3298 7.11569 1.37441 7.05625 1.43131L4.55625 3.93131C4.49798 3.98958 4.45175 4.05876 4.42021 4.1349C4.38868 4.21104 4.37244 4.29265 4.37244 4.37506C4.37244 4.45747 4.38868 4.53907 4.42021 4.61521C4.45175 4.69135 4.49798 4.76053 4.55625 4.81881C4.61452 4.87708 4.68371 4.92331 4.75984 4.95484C4.83598 4.98638 4.91759 5.00261 5 5.00261C5.08241 5.00261 5.16402 4.98638 5.24016 4.95484C5.31629 4.92331 5.38548 4.87708 5.44375 4.81881ZM13.125 7.50006C12.9592 7.50006 12.8003 7.56591 12.6831 7.68312C12.5658 7.80033 12.5 7.9593 12.5 8.12506V11.8751C12.5 12.0408 12.4342 12.1998 12.3169 12.317C12.1997 12.4342 12.0408 12.5001 11.875 12.5001H3.125C2.95924 12.5001 2.80027 12.4342 2.68306 12.317C2.56585 12.1998 2.5 12.0408 2.5 11.8751V8.12506C2.5 7.9593 2.43415 7.80033 2.31694 7.68312C2.19973 7.56591 2.04076 7.50006 1.875 7.50006C1.70924 7.50006 1.55027 7.56591 1.43306 7.68312C1.31585 7.80033 1.25 7.9593 1.25 8.12506V11.8751C1.25 12.3723 1.44754 12.8493 1.79917 13.2009C2.15081 13.5525 2.62772 13.7501 3.125 13.7501H11.875C12.3723 13.7501 12.8492 13.5525 13.2008 13.2009C13.5525 12.8493 13.75 12.3723 13.75 11.8751V8.12506C13.75 7.9593 13.6842 7.80033 13.5669 7.68312C13.4497 7.56591 13.2908 7.50006 13.125 7.50006Z" fill="black"/>
</g>
</svg>
