<svg width="20" height="20" viewBox="0 0 20 20" fill="none" xmlns="http://www.w3.org/2000/svg">
<g id="user" style="mix-blend-mode:hard-light">
<path id="Vector" d="M9.70375 2.5C7.46239 2.50232 5.31349 3.39372 3.7286 4.9786C2.14372 6.56349 1.25232 8.71239 1.25 10.9538C1.25 13.2125 2.12875 15.335 3.725 16.9313C4.50825 17.7189 5.43999 18.3434 6.46627 18.7684C7.49254 19.1935 8.59294 19.4107 9.70375 19.4075C11.9451 19.4052 14.094 18.5138 15.6789 16.9289C17.2638 15.344 18.1552 13.1951 18.1575 10.9538C18.1552 8.71239 17.2638 6.56349 15.6789 4.9786C14.094 3.39372 11.9451 2.50232 9.70375 2.5ZM4.59375 16.8763C5.17803 16.1161 5.92643 15.4977 6.78311 15.0672C7.63978 14.6367 8.58261 14.4052 9.54125 14.39C9.57125 14.3913 9.6 14.3988 9.63 14.3988H9.65875C9.68625 14.3988 9.71125 14.3913 9.73875 14.39C10.7107 14.4065 11.6658 14.6457 12.5309 15.089C13.3959 15.5324 14.1478 16.1682 14.7287 16.9475C13.3232 18.1337 11.543 18.7838 9.70375 18.7825C7.82596 18.7859 6.01056 18.1086 4.59375 16.8763ZM9.63375 13.7588C9.6025 13.7588 9.5725 13.7638 9.54125 13.765C8.81164 13.7403 8.12043 13.432 7.6146 12.9056C7.10876 12.3792 6.82818 11.6763 6.8325 10.9463C6.83381 10.5767 6.90805 10.2111 7.05098 9.8703C7.19391 9.52953 7.40271 9.22032 7.6654 8.96042C7.92809 8.70051 8.2395 8.49503 8.58178 8.35574C8.92406 8.21646 9.29047 8.14612 9.66 8.14875C10.0295 8.15006 10.3952 8.2243 10.7359 8.36723C11.0767 8.51016 11.3859 8.71896 11.6458 8.98165C11.9057 9.24434 12.1112 9.55575 12.2505 9.89803C12.3898 10.2403 12.4601 10.6067 12.4575 10.9763C12.4575 12.4913 11.245 13.7225 9.74 13.7663C9.705 13.765 9.67 13.7588 9.63375 13.7588ZM15.1925 16.5275C14.2259 15.252 12.8511 14.3466 11.2975 13.9625C11.8381 13.6663 12.2891 13.2301 12.6031 12.6996C12.9172 12.1691 13.0828 11.564 13.0825 10.9475C13.081 10.4959 12.9905 10.0491 12.8161 9.63258C12.6417 9.21605 12.3869 8.83801 12.0662 8.5201C11.7455 8.20219 11.3652 7.95066 10.9472 7.77991C10.5292 7.60915 10.0816 7.52253 9.63 7.525C9.17844 7.52647 8.7316 7.617 8.31507 7.79139C7.89855 7.96579 7.52051 8.22063 7.2026 8.54132C6.88469 8.86202 6.63316 9.24227 6.46241 9.6603C6.29165 10.0783 6.20503 10.5259 6.2075 10.9775C6.2098 11.5882 6.37594 12.1871 6.68859 12.7117C7.00124 13.2363 7.44895 13.6674 7.985 13.96C6.45763 14.3352 5.10102 15.2136 4.13375 16.4538C2.68295 14.9925 1.87108 13.0154 1.87625 10.9563C1.87857 8.88065 2.70412 6.89072 4.1718 5.42305C5.63947 3.95537 7.6294 3.12982 9.705 3.1275C11.7806 3.12982 13.7705 3.95537 15.2382 5.42305C16.7059 6.89072 17.5314 8.88065 17.5338 10.9563C17.5332 11.9939 17.3259 13.021 16.9239 13.9775C16.5219 14.9341 15.9333 15.801 15.1925 16.5275Z" fill="#010101"/>
</g>
</svg>
